@startuml fast_immutable_collections_benchmarks
set namespaceSeparator ::

class "fast_immutable_collections_benchmarks::src::benchmarks.dart::FullReporter" {
  +Map<String, BenchmarkReporter> benchmarks
  +void report()
  +void save()
}

class "fast_immutable_collections_benchmarks::src::cases::add.dart::AddBenchmark" {
  +void report()
}

"fast_immutable_collections_benchmarks::src::utils::benchmark_reporter.dart::BenchmarkReporter" <|-- "fast_immutable_collections_benchmarks::src::cases::add.dart::AddBenchmark"

class "fast_immutable_collections_benchmarks::src::cases::add.dart::_ListAddBenchmark" {
  +List<int> list
  +void setup()
  +void run()
}

"fast_immutable_collections_benchmarks::src::utils::list_benchmark_base.dart::ListBenchmarkBase" <|-- "fast_immutable_collections_benchmarks::src::cases::add.dart::_ListAddBenchmark"

class "fast_immutable_collections_benchmarks::src::cases::add.dart::_IListAddBenchmark" {
  +IList<int> ilist
  +IList<int> result
  +void setup()
  +void run()
}

"fast_immutable_collections_benchmarks::src::cases::add.dart::_IListAddBenchmark" o-- "fast_immutable_collections::src::i_list.dart::IList<int>"
"fast_immutable_collections_benchmarks::src::utils::list_benchmark_base.dart::ListBenchmarkBase" <|-- "fast_immutable_collections_benchmarks::src::cases::add.dart::_IListAddBenchmark"

class "fast_immutable_collections_benchmarks::src::cases::add.dart::_KtListAddBenchmark" {
  +dynamic ktList
  +dynamic result
  +void setup()
  +void run()
}

"fast_immutable_collections_benchmarks::src::utils::list_benchmark_base.dart::ListBenchmarkBase" <|-- "fast_immutable_collections_benchmarks::src::cases::add.dart::_KtListAddBenchmark"

class "fast_immutable_collections_benchmarks::src::cases::add.dart::_BuiltListAddWithRebuildBenchmark" {
  +BuiltList<int> builtList
  +BuiltList<int> result
  +void setup()
  +void run()
}

"fast_immutable_collections_benchmarks::src::cases::add.dart::_BuiltListAddWithRebuildBenchmark" o-- "built_collection::src::list.dart::BuiltList<int>"
"fast_immutable_collections_benchmarks::src::utils::list_benchmark_base.dart::ListBenchmarkBase" <|-- "fast_immutable_collections_benchmarks::src::cases::add.dart::_BuiltListAddWithRebuildBenchmark"

class "fast_immutable_collections_benchmarks::src::cases::add.dart::_BuiltListAddWithListBuilderBenchmark" {
  {static} +int innerRuns
  +BuiltList<int> builtList
  +BuiltList<int> result
  +void setup()
  +void run()
}

"fast_immutable_collections_benchmarks::src::cases::add.dart::_BuiltListAddWithListBuilderBenchmark" o-- "built_collection::src::list.dart::BuiltList<int>"
"fast_immutable_collections_benchmarks::src::utils::list_benchmark_base.dart::ListBenchmarkBase" <|-- "fast_immutable_collections_benchmarks::src::cases::add.dart::_BuiltListAddWithListBuilderBenchmark"

class "fast_immutable_collections_benchmarks::src::cases::add_all.dart::AddAllBenchmark" {
  +void report()
}

"fast_immutable_collections_benchmarks::src::utils::benchmark_reporter.dart::BenchmarkReporter" <|-- "fast_immutable_collections_benchmarks::src::cases::add_all.dart::AddAllBenchmark"

class "fast_immutable_collections_benchmarks::src::cases::add_all.dart::_ListAddAllBenchmark" {
  -List<int> _list
  +void setup()
  +void run()
}

"fast_immutable_collections_benchmarks::src::utils::list_benchmark_base.dart::ListBenchmarkBase" <|-- "fast_immutable_collections_benchmarks::src::cases::add_all.dart::_ListAddAllBenchmark"

class "fast_immutable_collections_benchmarks::src::cases::add_all.dart::_IListAddAllBenchmark" {
  -IList<int> _iList
  +void setup()
  +void run()
}

"fast_immutable_collections_benchmarks::src::cases::add_all.dart::_IListAddAllBenchmark" o-- "fast_immutable_collections::src::i_list.dart::IList<int>"
"fast_immutable_collections_benchmarks::src::utils::list_benchmark_base.dart::ListBenchmarkBase" <|-- "fast_immutable_collections_benchmarks::src::cases::add_all.dart::_IListAddAllBenchmark"

class "fast_immutable_collections_benchmarks::src::cases::add_all.dart::_KtListAddAllBenchmark" {
  -dynamic _ktList
  +void setup()
  +void run()
}

"fast_immutable_collections_benchmarks::src::utils::list_benchmark_base.dart::ListBenchmarkBase" <|-- "fast_immutable_collections_benchmarks::src::cases::add_all.dart::_KtListAddAllBenchmark"

class "fast_immutable_collections_benchmarks::src::cases::add_all.dart::_BuiltListAddAllBenchmark" {
  -BuiltList<int> _builtList
  +void setup()
  +void run()
}

"fast_immutable_collections_benchmarks::src::cases::add_all.dart::_BuiltListAddAllBenchmark" o-- "built_collection::src::list.dart::BuiltList<int>"
"fast_immutable_collections_benchmarks::src::utils::list_benchmark_base.dart::ListBenchmarkBase" <|-- "fast_immutable_collections_benchmarks::src::cases::add_all.dart::_BuiltListAddAllBenchmark"

class "fast_immutable_collections_benchmarks::src::cases::empty.dart::EmptyBenchmark" {
  +void report()
}

"fast_immutable_collections_benchmarks::src::utils::benchmark_reporter.dart::BenchmarkReporter" <|-- "fast_immutable_collections_benchmarks::src::cases::empty.dart::EmptyBenchmark"

class "fast_immutable_collections_benchmarks::src::cases::empty.dart::_ListEmptyBenchmark" {
  +void run()
}

"fast_immutable_collections_benchmarks::src::utils::list_benchmark_base.dart::ListBenchmarkBase" <|-- "fast_immutable_collections_benchmarks::src::cases::empty.dart::_ListEmptyBenchmark"

class "fast_immutable_collections_benchmarks::src::cases::empty.dart::_IListEmptyBenchmark" {
  +void run()
}

"fast_immutable_collections_benchmarks::src::utils::list_benchmark_base.dart::ListBenchmarkBase" <|-- "fast_immutable_collections_benchmarks::src::cases::empty.dart::_IListEmptyBenchmark"

class "fast_immutable_collections_benchmarks::src::cases::empty.dart::_KtListEmptyBenchmark" {
  +void run()
}

"fast_immutable_collections_benchmarks::src::utils::list_benchmark_base.dart::ListBenchmarkBase" <|-- "fast_immutable_collections_benchmarks::src::cases::empty.dart::_KtListEmptyBenchmark"

class "fast_immutable_collections_benchmarks::src::cases::empty.dart::_BuiltListEmptyBenchmark" {
  +void run()
}

"fast_immutable_collections_benchmarks::src::utils::list_benchmark_base.dart::ListBenchmarkBase" <|-- "fast_immutable_collections_benchmarks::src::cases::empty.dart::_BuiltListEmptyBenchmark"

class "fast_immutable_collections_benchmarks::src::cases::read.dart::ReadBenchmark" {
  +void report()
}

"fast_immutable_collections_benchmarks::src::utils::benchmark_reporter.dart::BenchmarkReporter" <|-- "fast_immutable_collections_benchmarks::src::cases::read.dart::ReadBenchmark"

class "fast_immutable_collections_benchmarks::src::cases::read.dart::_ListReadBenchmark" {
  -List<int> _list
  +void setup()
  +void run()
}

"fast_immutable_collections_benchmarks::src::utils::list_benchmark_base.dart::ListBenchmarkBase" <|-- "fast_immutable_collections_benchmarks::src::cases::read.dart::_ListReadBenchmark"

class "fast_immutable_collections_benchmarks::src::cases::read.dart::_IListReadBenchmark" {
  -IList<int> _iList
  +void setup()
  +void run()
}

"fast_immutable_collections_benchmarks::src::cases::read.dart::_IListReadBenchmark" o-- "fast_immutable_collections::src::i_list.dart::IList<int>"
"fast_immutable_collections_benchmarks::src::utils::list_benchmark_base.dart::ListBenchmarkBase" <|-- "fast_immutable_collections_benchmarks::src::cases::read.dart::_IListReadBenchmark"

class "fast_immutable_collections_benchmarks::src::cases::read.dart::_KtListReadBenchmark" {
  -dynamic _ktList
  +void setup()
  +void run()
}

"fast_immutable_collections_benchmarks::src::utils::list_benchmark_base.dart::ListBenchmarkBase" <|-- "fast_immutable_collections_benchmarks::src::cases::read.dart::_KtListReadBenchmark"

class "fast_immutable_collections_benchmarks::src::cases::read.dart::_BuiltListReadBenchmark" {
  -BuiltList<int> _builtList
  +void setup()
  +void run()
}

"fast_immutable_collections_benchmarks::src::cases::read.dart::_BuiltListReadBenchmark" o-- "built_collection::src::list.dart::BuiltList<int>"
"fast_immutable_collections_benchmarks::src::utils::list_benchmark_base.dart::ListBenchmarkBase" <|-- "fast_immutable_collections_benchmarks::src::cases::read.dart::_BuiltListReadBenchmark"

class "fast_immutable_collections_benchmarks::src::cases::remove.dart::RemoveBenchmark" {
  +void report()
}

"fast_immutable_collections_benchmarks::src::utils::benchmark_reporter.dart::BenchmarkReporter" <|-- "fast_immutable_collections_benchmarks::src::cases::remove.dart::RemoveBenchmark"

class "fast_immutable_collections_benchmarks::src::cases::remove.dart::_ListRemoveBenchmark" {
  -List<int> _list
  +void setup()
  +void run()
}

"fast_immutable_collections_benchmarks::src::utils::list_benchmark_base.dart::ListBenchmarkBase" <|-- "fast_immutable_collections_benchmarks::src::cases::remove.dart::_ListRemoveBenchmark"

class "fast_immutable_collections_benchmarks::src::cases::remove.dart::_IListRemoveBenchmark" {
  -IList<int> _iList
  +void setup()
  +void run()
}

"fast_immutable_collections_benchmarks::src::cases::remove.dart::_IListRemoveBenchmark" o-- "fast_immutable_collections::src::i_list.dart::IList<int>"
"fast_immutable_collections_benchmarks::src::utils::list_benchmark_base.dart::ListBenchmarkBase" <|-- "fast_immutable_collections_benchmarks::src::cases::remove.dart::_IListRemoveBenchmark"

class "fast_immutable_collections_benchmarks::src::cases::remove.dart::_KtListRemoveBenchmark" {
  -dynamic _ktList
  +void setup()
  +void run()
}

"fast_immutable_collections_benchmarks::src::utils::list_benchmark_base.dart::ListBenchmarkBase" <|-- "fast_immutable_collections_benchmarks::src::cases::remove.dart::_KtListRemoveBenchmark"

class "fast_immutable_collections_benchmarks::src::cases::remove.dart::_BuiltListRemoveBenchmark" {
  -BuiltList<int> _builtList
  +void setup()
  +void run()
}

"fast_immutable_collections_benchmarks::src::cases::remove.dart::_BuiltListRemoveBenchmark" o-- "built_collection::src::list.dart::BuiltList<int>"
"fast_immutable_collections_benchmarks::src::utils::list_benchmark_base.dart::ListBenchmarkBase" <|-- "fast_immutable_collections_benchmarks::src::cases::remove.dart::_BuiltListRemoveBenchmark"

abstract class "fast_immutable_collections_benchmarks::src::utils::benchmark_reporter.dart::BenchmarkReporter" {
  +List<TableScoreEmitter> tableScoreEmitters
  +void report()
  +void save()
}

abstract class "fast_immutable_collections_benchmarks::src::utils::list_benchmark_base.dart::ListBenchmarkBase" {
  +int runs
  +int size
  {static} +List<int> dummyStaticList
  {static} +List getDummyGeneratedList()
  +void exercise()
}

"benchmark_harness::benchmark_harness.dart::BenchmarkBase" <|-- "fast_immutable_collections_benchmarks::src::utils::list_benchmark_base.dart::ListBenchmarkBase"

class "fast_immutable_collections_benchmarks::src::utils::table_score_emitter.dart::TableScoreEmitter" {
  -String _reportName
  -Map<String, double> _scores
  {static} -String _mu
  +Map<String, double> scores
  +String table
  +void emit()
  +void saveReport()
  -void _createReportsFolderIfNonExistent()
  -Map _normalizedColumn()
  -Map _normalizedAgainstListColumn()
}

"benchmark_harness::benchmark_harness.dart::ScoreEmitter" <|-- "fast_immutable_collections_benchmarks::src::utils::table_score_emitter.dart::TableScoreEmitter"


@enduml
